{
  "accessors": [
    {
      "bufferView": 2,
      "componentType": 5126,
      "count": 8148,
      "max": [
        2.540424108505249,
        3.5512120723724365,
        4.833282947540283
      ],
      "min": [
        -2.54925799369812,
        -3.4973878860473633,
        -2.846374034881592
      ],
      "type": "VEC3"
    },
    {
      "bufferView": 2,
      "byteOffset": 97776,
      "componentType": 5126,
      "count": 8148,
      "max": [
        0.9996323585510254,
        0.9999962449073792,
        0.9999358654022217
      ],
      "min": [
        -0.9999984502792358,
        -0.9995015263557434,
        -0.999991238117218
      ],
      "type": "VEC3"
    },
    {
      "bufferView": 3,
      "componentType": 5126,
      "count": 8148,
      "max": [
        0.9989961385726929,
        0.999976396560669,
        0.9998318552970886,
        1.0
      ],
      "min": [
        -0.999176025390625,
        -0.9997511506080627,
        -0.9998764395713806,
        -1.0
      ],
      "type": "VEC4"
    },
    {
      "bufferView": 1,
      "componentType": 5126,
      "count": 8148,
      "max": [
        0.9999880194664001,
        0.9327809810638428
      ],
      "min": [
        2.9000000722589903e-05,
        8.900000102585182e-05
      ],
      "type": "VEC2"
    },
    {
      "bufferView": 0,
      "componentType": 5125,
      "count": 43914,
      "type": "SCALAR"
    }
  ],
  "asset": {
    "extras": {
      "author": "Yu (https://sketchfab.com/FFT_kedar)",
      "license": "CC-BY-4.0 (http://creativecommons.org/licenses/by/4.0/)",
      "source": "https://sketchfab.com/3d-models/human-skull-model-plastic-017c6f4a760f40a0a03de8fae29b306b",
      "title": "Human Skull Model (Plastic)"
    },
    "generator": "Sketchfab-12.67.0",
    "version": "2.0"
  },
  "bufferViews": [
    {
      "buffer": 0,
      "byteLength": 175656,
      "name": "floatBufferViews",
      "target": 34963
    },
    {
      "buffer": 0,
      "byteLength": 65184,
      "byteOffset": 175656,
      "byteStride": 8,
      "name": "floatBufferViews",
      "target": 34962
    },
    {
      "buffer": 0,
      "byteLength": 195552,
      "byteOffset": 240840,
      "byteStride": 12,
      "name": "floatBufferViews",
      "target": 34962
    },
    {
      "buffer": 0,
      "byteLength": 130368,
      "byteOffset": 436392,
      "byteStride": 16,
      "name": "floatBufferViews",
      "target": 34962
    }
  ],
  "buffers": [
    {
      "byteLength": 566760,
      "uri": "scene.bin"
    }
  ],
  "extensionsUsed": [
    "KHR_materials_clearcoat"
  ],
  "images": [
    {
      "uri": "textures/Skull_LOWSkull_LOW_baseColor.png"
    },
    {
      "uri": "textures/Skull_LOWSkull_LOW_metallicRoughness.png"
    },
    {
      "uri": "textures/Skull_LOWSkull_LOW_normal.jpeg"
    },
    {
      "uri": "textures/Skull_LOWSkull_LOW_clearcoat.png"
    }
  ],
  "materials": [
    {
      "doubleSided": true,
      "extensions": {
        "KHR_materials_clearcoat": {
          "clearcoatFactor": 0.05,
          "clearcoatNormalTexture": {
            "index": 2,
            "scale": 0.6
          },
          "clearcoatRoughnessFactor": 0.15,
          "clearcoatTexture": {
            "index": 3
          }
        }
      },
      "name": "Skull_LOWSkull_LOW",
      "normalTexture": {
        "index": 2,
        "scale": 0.6
      },
      "pbrMetallicRoughness": {
        "baseColorTexture": {
          "index": 0
        },
        "metallicFactor": 0.0,
        "metallicRoughnessTexture": {
          "index": 1
        },
        "roughnessFactor": 0.65
      }
    }
  ],
  "meshes": [
    {
      "name": "Object_0",
      "primitives": [
        {
          "attributes": {
            "NORMAL": 1,
            "POSITION": 0,
            "TANGENT": 2,
            "TEXCOORD_0": 3
          },
          "indices": 4,
          "material": 0,
          "mode": 4
        }
      ]
    }
  ],
  "nodes": [
    {
      "children": [
        1
      ],
      "matrix": [
        1.0,
        0.0,
        0.0,
        0.0,
        0.0,
        2.220446049250313e-16,
        -1.0,
        0.0,
        0.0,
        1.0,
        2.220446049250313e-16,
        0.0,
        0.0,
        0.0,
        0.0,
        1.0
      ],
      "name": "Sketchfab_model"
    },
    {
      "children": [
        2
      ],
      "name": "Skull_LOW2.OBJ.cleaner.materialmerger.gles"
    },
    {
      "mesh": 0,
      "name": "Object_2"
    }
  ],
  "samplers": [
    {
      "magFilter": 9729,
      "minFilter": 9987,
      "wrapS": 10497,
      "wrapT": 10497
    }
  ],
  "scene": 0,
  "scenes": [
    {
      "name": "Sketchfab_Scene",
      "nodes": [
        0
      ]
    }
  ],
  "textures": [
    {
      "sampler": 0,
      "source": 0
    },
    {
      "sampler": 0,
      "source": 1
    },
    {
      "sampler": 0,
      "source": 2
    },
    {
      "sampler": 0,
      "source": 3
    }
  ]
}
